<svg width="90" height="101" viewBox="0 0 90 101" fill="none" xmlns="http://www.w3.org/2000/svg">
<path d="M1 100.875H29.0702H31.4094L33.7485 93.8983H38.4269C38.4989 92.1532 38.906 91.5397 40.7661 91.5727H43.1053V77.6192C41.5554 74.3853 40.64 72.6665 40.7661 65.9913C40.8409 63.7511 39.842 61.985 38.4269 59.0145V56.6889L43.1053 54.3634C44.2095 53.5141 44.2228 53.0323 43.1053 52.0378V49.7122C43.2841 48.0726 43.7364 47.5062 45.4444 47.3866C47.1219 47.4022 47.5596 47.9991 47.7836 49.7122V52.0378C46.5695 53.0621 46.9899 53.5195 47.7836 54.3634L52.462 56.6889V59.0145C50.5791 61.6564 49.6733 63.1506 50.1228 65.9913C50.0765 71.7489 49.6202 74.3785 47.7836 77.6192V91.5727H50.1228C51.8337 91.5671 52.3882 92.0251 52.462 93.8983H57.1404L59.4795 100.875H89.8889L45.4444 0.875L1 100.875Z" fill="#B6A26B" stroke="#B6A26B" stroke-width="0.1"/>
</svg>
